<svg width="640" height="400" viewBox="0 0 640 400" fill="none" xmlns="http://www.w3.org/2000/svg">
  <rect width="640" height="400" rx="36" fill="#FFF8F2"/>
  <circle cx="116" cy="88" r="76" fill="#FFE2D8"/>
  <circle cx="528" cy="312" r="84" fill="#E5F7F1"/>
  <path d="M306 62L336 62L330 110H312L306 62Z" fill="#A77663"/>
  <rect x="246" y="102" width="146" height="216" rx="40" fill="#FFFDF8" stroke="#D8B8AA" stroke-width="10"/>
  <rect x="262" y="132" width="114" height="160" rx="28" fill="#6F4A3A"/>
  <path d="M280 132C292 114 320 112 338 122C350 128 360 140 364 156C338 168 298 168 272 156C274 148 276 140 280 132Z" fill="#F1E2D8"/>
  <circle cx="318" cy="164" r="10" fill="#5C352B"/>
  <circle cx="344" cy="184" r="10" fill="#5C352B"/>
</svg>
